# xmcd
#
# Track frame offsets: 
#        150
#        29978
#        66644
#        86746
#        115019
#        138237
#        160801
#        187990
#        216656
#        243345
#        280023
#
# Disc length: 3832 seconds
#
# Revision: 2
# Processed by: cddbd v1.5.2PL0 Copyright (c) Steve Scherf et al.
# Submitted via: ExactAudioCopy v0.95b4
#
DISCID=a70ef60b
DTITLE=Dark Sanctuary - Exaudi Vocem Mean (Part II)
DYEAR=2006
DGENRE=Darkwave/Gothic Neoclassical
TTITLE0=Dies Mortis
TTITLE1=Vision Meurtrie
TTITLE2=La Reveuse
TTITLE3=L'Inconnue
TTITLE4=Creuseur De Terre
TTITLE5=L'Autre Monde (Accoustic)
TTITLE6=Au Coeur De L'Oubli (Instrumental)
TTITLE7=J'Ai Reve D'Une Vie
TTITLE8=Femme D'Un Soldat Mort
TTITLE9=Un Jour, Peut-Etre... (Instrumental)
TTITLE10=La Complainte De Sally
EXTD=
EXTT0=
EXTT1=
EXTT2=
EXTT3=
EXTT4=
EXTT5=
EXTT6=
EXTT7=
EXTT8=
EXTT9=
EXTT10=
PLAYORDER=
